{}|
code:31,msg:queue not exist|

{"errcode":40013,"errmsg":"invalid appid hint: [Xusp9a0855hb97]"}
{"access_token":"26_x_a0KtSQqw9uk4MQrbkQN_znk5JOK6bFUAVg9c82tAWk2TegnwXkaddwkaC0Hxdq-9973LefoBh501NkGj0SregaH8YMTAO0jA2X3IhnIOX8YecFj_lMoBSeDvMOLFzzlaXNWwuAH_M_ns0NXFOaAGAPXG","expires_in":7200}
{"access_token":"26_cP7JysA8esHBkDxqXvEQPuyRbdC6CC6cVHSUbhN8piQVMgK-8ZtueaXYvZPilBn29TChXNf2N9sGfPvv2Osn58cSoYI0f5k0tC3ijTX0wi9dT4UeX96Q3jVakGECg9R2ixWOVPwF-IRYKaoZAKIeADAJTR","expires_in":7200}
{"access_token":"26_AplTYiZ4fm388jdBHZsfN6iigJNlP7D48hNyrFsTlPTeS5ag_x-hSFAw__uYY6e1Sec5asCr13m80snBJOtS_OXIFdtuQhAfKO7djUMpSk0TDPbjRLokjne7GC0KAHjAHAQGN","expires_in":7200}
{"access_token":"26_dgI_OZBmF4cF1nZVVA-yaPo1T_1TCqK25m0Uo0yKk8QfNe8THzoR8P0tdQOSBNhgMddZTWV3WoUuOKdiLmbCpTpOvUBLTSlFov5fq8DncblcJHMQMveri8aeuLQSNXdADAZUE","expires_in":7200}
{"access_token":"26_4qZfGiu2lJTsPdktBEAm8u3FIHQ-40b-ugaCQDHLADv8gVyJZQT3LutW0bI3JWUb5_KevQ-aylBVKLXxtnDIoO5aJK55xi81-ulW-qfrLviV38c7nsAwMSTo-K5flMv_xkvvCYrK0F__AVGaIFWjAAAVSJ","expires_in":7200}
{"access_token":"26_oLDI3x6y102I2vc920FmVuj1nj0YxIleYs6Q9zXnYPCF9ILYJHeT3TF7cD4cfCCjOq1NUuV1cJ-gqiwmYo-d7OCsY4Azclno7trbeDHRoBdPGobCt3RTWpnoRhixW2ANQtEL12dzm6QUsZphAWVcAFAHDC","expires_in":7200}

|命令|ffmpeg -i /www/web/default/attachment//audios/3/2019/10/1570759661781zkchNs.amr /www/web/default/attachment/audios/3/2019/10/audios/3/2019/10/oKustik5mMTbJ355mdikJBkm5s6U5R.ogg
|命令|ffmpeg -i /www/web/default/attachment//audios/3/2019/10/15707598866598fUZXn.amr /www/web/default/attachment//audios/3/2019/10/kIYRvC82RLAnj8Vj277VRN82IL7105.ogg
|命令|ffmpeg -i /www/web/default/attachment//audios/3/2019/10/1570760088444zpt9hB.amr /www/web/default/attachment//audios/3/2019/10/zZr0qSsNnVHYhh2VUNBKSUeNhVhfin.ogg
|命令|ffmpeg -i /www/web/default/attachment//audios/3/2019/10/1570760305553B52MAv.amr /www/web/default/attachment//audios/3/2019/10/xDd6u4etpW66rP4NTqt0t500e9ZtTQ.ogg
sh: ffmpeg: command not found
|命令|ffmpeg -i /www/web/default/attachment//audios/3/2019/10/1570760487745YKtSYA.amr /www/web/default/attachment//audios/3/2019/10/Y5P4j94knJn9ZXq5JnJGjz7qKnW7Jn.ogg 2>&1
ffmpeg version 3.4 Copyright (c) 2000-2017 the FFmpeg developers
  built with gcc 4.4.7 (GCC) 20120313 (Red Hat 4.4.7-18)
  configuration: 
  libavutil      55. 78.100 / 55. 78.100
  libavcodec     57.107.100 / 57.107.100
  libavformat    57. 83.100 / 57. 83.100
  libavdevice    57. 10.100 / 57. 10.100
  libavfilter     6.107.100 /  6.107.100
  libswscale      4.  8.100 /  4.  8.100
  libswresample   2.  9.100 /  2.  9.100
[amr @ 0x3f08360] Estimating duration from bitrate, this may be inaccurate
Input #0, amr, from '/www/web/default/attachment//audios/3/2019/10/1570760712291TtY9mK.amr':
  Duration: 00:00:13.68, bitrate: 5 kb/s
    Stream #0:0: Audio: amr_nb (samr / 0x726D6173), 8000 Hz, mono, flt
Stream mapping:
  Stream #0:0 -> #0:0 (amr_nb (amrnb) -> flac (native))
Press [q] to stop, [?] for help
[flac @ 0x3f1ac20] encoding as 24 bits-per-sample
Output #0, ogg, to '/www/web/default/attachment//audios/3/2019/10/Ct287knUNTnUYN7N28g8NUn17q71YZ.ogg':
  Metadata:
    encoder         : Lavf57.83.100
    Stream #0:0: Audio: flac, 8000 Hz, mono, s32 (24 bit), 128 kb/s
    Metadata:
      encoder         : Lavc57.107.100 flac
size=     183kB time=00:00:13.68 bitrate= 109.6kbits/s speed= 607x    
video:0kB audio:182kB subtitle:0kB other streams:0kB global headers:0kB muxing overhead: 0.732947%
|命令|/usr/local/bin/ffmpeg -i /www/web/default/attachment//audios/3/2019/10/1570760712291TtY9mK.amr /www/web/default/attachment//audios/3/2019/10/Ct287knUNTnUYN7N28g8NUn17q71YZ.ogg 2>&1
ffmpeg version 3.4 Copyright (c) 2000-2017 the FFmpeg developers
  built with gcc 4.4.7 (GCC) 20120313 (Red Hat 4.4.7-18)
  configuration: 
  libavutil      55. 78.100 / 55. 78.100
  libavcodec     57.107.100 / 57.107.100
  libavformat    57. 83.100 / 57. 83.100
  libavdevice    57. 10.100 / 57. 10.100
  libavfilter     6.107.100 /  6.107.100
  libswscale      4.  8.100 /  4.  8.100
  libswresample   2.  9.100 /  2.  9.100
/www/web/default/attachment//audios/3/2019/10/1570762410696gYT6yN.amr: Invalid data found when processing input
|命令|/usr/local/bin/ffmpeg -i /www/web/default/attachment//audios/3/2019/10/1570762410696gYT6yN.amr /www/web/default/attachment//audios/3/2019/10/V1pzbp3mZW6wtW6IVVzLMpTPmTm3pp.ogg 2>&1
ffmpeg version 3.4 Copyright (c) 2000-2017 the FFmpeg developers
  built with gcc 4.4.7 (GCC) 20120313 (Red Hat 4.4.7-18)
  configuration: 
  libavutil      55. 78.100 / 55. 78.100
  libavcodec     57.107.100 / 57.107.100
  libavformat    57. 83.100 / 57. 83.100
  libavdevice    57. 10.100 / 57. 10.100
  libavfilter     6.107.100 /  6.107.100
  libswscale      4.  8.100 /  4.  8.100
  libswresample   2.  9.100 /  2.  9.100
/www/web/default/attachment//audios/3/2019/10/1570763194263gdRrg4.amr: Invalid data found when processing input
|命令|/usr/local/bin/ffmpeg -i /www/web/default/attachment//audios/3/2019/10/1570763194263gdRrg4.amr /www/web/default/attachment//audios/3/2019/10/R2Zt2nG0zieNghWws8EgbM5502kgh7.ogg 2>&1
ffmpeg version 3.4 Copyright (c) 2000-2017 the FFmpeg developers
  built with gcc 4.4.7 (GCC) 20120313 (Red Hat 4.4.7-18)
  configuration: 
  libavutil      55. 78.100 / 55. 78.100
  libavcodec     57.107.100 / 57.107.100
  libavformat    57. 83.100 / 57. 83.100
  libavdevice    57. 10.100 / 57. 10.100
  libavfilter     6.107.100 /  6.107.100
  libswscale      4.  8.100 /  4.  8.100
  libswresample   2.  9.100 /  2.  9.100
/www/web/default/attachment//audios/3/2019/10/1570763291023HuebxB.amr: Invalid data found when processing input
|命令|/usr/local/bin/ffmpeg -i /www/web/default/attachment//audios/3/2019/10/1570763291023HuebxB.amr /www/web/default/attachment//audios/3/2019/10/q19kgWaYGYkdGfkdfVU8xEUvDU8FRe.ogg 2>&1
ffmpeg version 3.4 Copyright (c) 2000-2017 the FFmpeg developers
  built with gcc 4.4.7 (GCC) 20120313 (Red Hat 4.4.7-18)
  configuration: 
  libavutil      55. 78.100 / 55. 78.100
  libavcodec     57.107.100 / 57.107.100
  libavformat    57. 83.100 / 57. 83.100
  libavdevice    57. 10.100 / 57. 10.100
  libavfilter     6.107.100 /  6.107.100
  libswscale      4.  8.100 /  4.  8.100
  libswresample   2.  9.100 /  2.  9.100
[amr @ 0x297e360] Estimating duration from bitrate, this may be inaccurate
Input #0, amr, from '/www/web/default/attachment//audios/3/2019/10/1570767864600tSKGPT.amr':
  Duration: 00:00:05.04, bitrate: 5 kb/s
    Stream #0:0: Audio: amr_nb (samr / 0x726D6173), 8000 Hz, mono, flt
Stream mapping:
  Stream #0:0 -> #0:0 (amr_nb (amrnb) -> flac (native))
Press [q] to stop, [?] for help
[flac @ 0x2990c20] encoding as 24 bits-per-sample
Output #0, ogg, to '/www/web/default/attachment//audios/3/2019/10/cTjjAv2OmtcDMSjoCJa8eTpEEtfo1M.ogg':
  Metadata:
    encoder         : Lavf57.83.100
    Stream #0:0: Audio: flac, 8000 Hz, mono, s32 (24 bit), 128 kb/s
    Metadata:
      encoder         : Lavc57.107.100 flac
size=      77kB time=00:00:05.04 bitrate= 124.5kbits/s speed= 482x    
video:0kB audio:76kB subtitle:0kB other streams:0kB global headers:0kB muxing overhead: 0.815182%
|命令|/usr/local/bin/ffmpeg -i /www/web/default/attachment//audios/3/2019/10/1570767864600tSKGPT.amr /www/web/default/attachment//audios/3/2019/10/cTjjAv2OmtcDMSjoCJa8eTpEEtfo1M.ogg 2>&1
ffmpeg version 3.4 Copyright (c) 2000-2017 the FFmpeg developers
  built with gcc 4.4.7 (GCC) 20120313 (Red Hat 4.4.7-18)
  configuration: --enable-libmp3lame
  libavutil      55. 78.100 / 55. 78.100
  libavcodec     57.107.100 / 57.107.100
  libavformat    57. 83.100 / 57. 83.100
  libavdevice    57. 10.100 / 57. 10.100
  libavfilter     6.107.100 /  6.107.100
  libswscale      4.  8.100 /  4.  8.100
  libswresample   2.  9.100 /  2.  9.100
[amr @ 0x318a360] Estimating duration from bitrate, this may be inaccurate
Input #0, amr, from '/www/web/default/attachment//audios/3/2019/10/1571024112021T4e3fK.amr':
  Duration: 00:00:01.08, bitrate: 5 kb/s
    Stream #0:0: Audio: amr_nb (samr / 0x726D6173), 8000 Hz, mono, flt
Stream mapping:
  Stream #0:0 -> #0:0 (amr_nb (amrnb) -> mp3 (libmp3lame))
Press [q] to stop, [?] for help
Output #0, mp3, to '/www/web/default/attachment//audios/3/2019/10/Fuk2LMLrALp1TPbl6vRGSrV6lmgzVP.mp3':
  Metadata:
    TSSE            : Lavf57.83.100
    Stream #0:0: Audio: mp3 (libmp3lame), 8000 Hz, mono, fltp
    Metadata:
      encoder         : Lavc57.107.100 libmp3lame
size=       1kB time=00:00:01.08 bitrate=  10.9kbits/s speed= 116x    
video:0kB audio:1kB subtitle:0kB other streams:0kB global headers:0kB muxing overhead: 21.323530%
|命令|/usr/local/bin/ffmpeg -i /www/web/default/attachment//audios/3/2019/10/1571024112021T4e3fK.amr /www/web/default/attachment//audios/3/2019/10/Fuk2LMLrALp1TPbl6vRGSrV6lmgzVP.mp3 2>&1
ffmpeg version 3.4 Copyright (c) 2000-2017 the FFmpeg developers
  built with gcc 4.4.7 (GCC) 20120313 (Red Hat 4.4.7-18)
  configuration: --enable-libmp3lame
  libavutil      55. 78.100 / 55. 78.100
  libavcodec     57.107.100 / 57.107.100
  libavformat    57. 83.100 / 57. 83.100
  libavdevice    57. 10.100 / 57. 10.100
  libavfilter     6.107.100 /  6.107.100
  libswscale      4.  8.100 /  4.  8.100
  libswresample   2.  9.100 /  2.  9.100
[amr @ 0x3b38360] Estimating duration from bitrate, this may be inaccurate
Input #0, amr, from '/www/web/default/attachment//audios/3/2019/10/1571025735230Madenw.amr':
  Duration: 00:00:10.08, bitrate: 5 kb/s
    Stream #0:0: Audio: amr_nb (samr / 0x726D6173), 8000 Hz, mono, flt
Stream mapping:
  Stream #0:0 -> #0:0 (amr_nb (amrnb) -> mp3 (libmp3lame))
Press [q] to stop, [?] for help
Output #0, mp3, to '/www/web/default/attachment//audios/3/2019/10/tjrmI9R4sjej2Gs9jg9vNSGVrpCVP1.mp3':
  Metadata:
    TSSE            : Lavf57.83.100
    Stream #0:0: Audio: mp3 (libmp3lame), 8000 Hz, mono, fltp
    Metadata:
      encoder         : Lavc57.107.100 libmp3lame
size=      10kB time=00:00:10.08 bitrate=   8.3kbits/s speed= 248x    
video:0kB audio:10kB subtitle:0kB other streams:0kB global headers:0kB muxing overhead: 2.552817%
|命令|/usr/local/bin/ffmpeg -i /www/web/default/attachment//audios/3/2019/10/1571025735230Madenw.amr /www/web/default/attachment//audios/3/2019/10/tjrmI9R4sjej2Gs9jg9vNSGVrpCVP1.mp3 2>&1
ffmpeg version 3.4 Copyright (c) 2000-2017 the FFmpeg developers
  built with gcc 4.4.7 (GCC) 20120313 (Red Hat 4.4.7-18)
  configuration: --enable-libmp3lame
  libavutil      55. 78.100 / 55. 78.100
  libavcodec     57.107.100 / 57.107.100
  libavformat    57. 83.100 / 57. 83.100
  libavdevice    57. 10.100 / 57. 10.100
  libavfilter     6.107.100 /  6.107.100
  libswscale      4.  8.100 /  4.  8.100
  libswresample   2.  9.100 /  2.  9.100
[amr @ 0x3971360] Estimating duration from bitrate, this may be inaccurate
Input #0, amr, from '/www/web/default/attachment//audios/3/2019/10/1571025830160YPsn4F.amr':
  Duration: 00:00:22.44, bitrate: 5 kb/s
    Stream #0:0: Audio: amr_nb (samr / 0x726D6173), 8000 Hz, mono, flt
Stream mapping:
  Stream #0:0 -> #0:0 (amr_nb (amrnb) -> mp3 (libmp3lame))
Press [q] to stop, [?] for help
Output #0, mp3, to '/www/web/default/attachment//audios/3/2019/10/KTeTZ7AtxNxIeRgTtozt65545O5toV.mp3':
  Metadata:
    TSSE            : Lavf57.83.100
    Stream #0:0: Audio: mp3 (libmp3lame), 8000 Hz, mono, fltp
    Metadata:
      encoder         : Lavc57.107.100 libmp3lame
size=      22kB time=00:00:22.46 bitrate=   8.1kbits/s speed= 339x    
video:0kB audio:22kB subtitle:0kB other streams:0kB global headers:0kB muxing overhead: 1.154459%
|命令|/usr/local/bin/ffmpeg -i /www/web/default/attachment//audios/3/2019/10/1571025830160YPsn4F.amr /www/web/default/attachment//audios/3/2019/10/KTeTZ7AtxNxIeRgTtozt65545O5toV.mp3 2>&1
ffmpeg version 3.4 Copyright (c) 2000-2017 the FFmpeg developers
  built with gcc 4.4.7 (GCC) 20120313 (Red Hat 4.4.7-18)
  configuration: --enable-libmp3lame
  libavutil      55. 78.100 / 55. 78.100
  libavcodec     57.107.100 / 57.107.100
  libavformat    57. 83.100 / 57. 83.100
  libavdevice    57. 10.100 / 57. 10.100
  libavfilter     6.107.100 /  6.107.100
  libswscale      4.  8.100 /  4.  8.100
  libswresample   2.  9.100 /  2.  9.100
[amr @ 0x4052360] Estimating duration from bitrate, this may be inaccurate
Input #0, amr, from '/www/web/default/attachment//audios/3/2019/10/15710260379819cWEMF.amr':
  Duration: 00:00:33.72, bitrate: 5 kb/s
    Stream #0:0: Audio: amr_nb (samr / 0x726D6173), 8000 Hz, mono, flt
Stream mapping:
  Stream #0:0 -> #0:0 (amr_nb (amrnb) -> mp3 (libmp3lame))
Press [q] to stop, [?] for help
Output #0, mp3, to '/www/web/default/attachment//audios/3/2019/10/gjdd02g2doN3o0oznN222002OBz423.mp3':
  Metadata:
    TSSE            : Lavf57.83.100
    Stream #0:0: Audio: mp3 (libmp3lame), 8000 Hz, mono, fltp
    Metadata:
      encoder         : Lavc57.107.100 libmp3lame
size=      33kB time=00:00:33.77 bitrate=   8.1kbits/s speed= 322x    
video:0kB audio:33kB subtitle:0kB other streams:0kB global headers:0kB muxing overhead: 0.769639%
|命令|/usr/local/bin/ffmpeg -i /www/web/default/attachment//audios/3/2019/10/15710260379819cWEMF.amr /www/web/default/attachment//audios/3/2019/10/gjdd02g2doN3o0oznN222002OBz423.mp3 2>&1
ffmpeg version 3.4 Copyright (c) 2000-2017 the FFmpeg developers
  built with gcc 4.4.7 (GCC) 20120313 (Red Hat 4.4.7-18)
  configuration: --enable-libmp3lame
  libavutil      55. 78.100 / 55. 78.100
  libavcodec     57.107.100 / 57.107.100
  libavformat    57. 83.100 / 57. 83.100
  libavdevice    57. 10.100 / 57. 10.100
  libavfilter     6.107.100 /  6.107.100
  libswscale      4.  8.100 /  4.  8.100
  libswresample   2.  9.100 /  2.  9.100
[amr @ 0x2503360] Estimating duration from bitrate, this may be inaccurate
Input #0, amr, from '/www/web/default/attachment//audios/3/2019/10/1571026519021ZbYuah.amr':
  Duration: 00:00:15.48, bitrate: 5 kb/s
    Stream #0:0: Audio: amr_nb (samr / 0x726D6173), 8000 Hz, mono, flt
Stream mapping:
  Stream #0:0 -> #0:0 (amr_nb (amrnb) -> mp3 (libmp3lame))
Press [q] to stop, [?] for help
Output #0, mp3, to '/www/web/default/attachment//audios/3/2019/10/QXzxep9q7xAPUxeBA71x9iALXx00X8.mp3':
  Metadata:
    TSSE            : Lavf57.83.100
    Stream #0:0: Audio: mp3 (libmp3lame), 8000 Hz, mono, fltp
    Metadata:
      encoder         : Lavc57.107.100 libmp3lame
size=      16kB time=00:00:15.48 bitrate=   8.2kbits/s speed= 293x    
video:0kB audio:15kB subtitle:0kB other streams:0kB global headers:0kB muxing overhead: 1.670507%
|命令|/usr/local/bin/ffmpeg -i /www/web/default/attachment//audios/3/2019/10/1571026519021ZbYuah.amr /www/web/default/attachment//audios/3/2019/10/QXzxep9q7xAPUxeBA71x9iALXx00X8.mp3 2>&1
ffmpeg version 3.4 Copyright (c) 2000-2017 the FFmpeg developers
  built with gcc 4.4.7 (GCC) 20120313 (Red Hat 4.4.7-18)
  configuration: --enable-libmp3lame
  libavutil      55. 78.100 / 55. 78.100
  libavcodec     57.107.100 / 57.107.100
  libavformat    57. 83.100 / 57. 83.100
  libavdevice    57. 10.100 / 57. 10.100
  libavfilter     6.107.100 /  6.107.100
  libswscale      4.  8.100 /  4.  8.100
  libswresample   2.  9.100 /  2.  9.100
[amr @ 0x2ade360] Estimating duration from bitrate, this may be inaccurate
Input #0, amr, from '/www/web/default/attachment//audios/3/2019/10/1571026538633cRf7xt.amr':
  Duration: 00:00:07.44, bitrate: 5 kb/s
    Stream #0:0: Audio: amr_nb (samr / 0x726D6173), 8000 Hz, mono, flt
Stream mapping:
  Stream #0:0 -> #0:0 (amr_nb (amrnb) -> mp3 (libmp3lame))
Press [q] to stop, [?] for help
Output #0, mp3, to '/www/web/default/attachment//audios/3/2019/10/VJfFkb567fZ00K50F1k603ZBSB1100.mp3':
  Metadata:
    TSSE            : Lavf57.83.100
    Stream #0:0: Audio: mp3 (libmp3lame), 8000 Hz, mono, fltp
    Metadata:
      encoder         : Lavc57.107.100 libmp3lame
size=       8kB time=00:00:07.49 bitrate=   8.4kbits/s speed= 360x    
video:0kB audio:7kB subtitle:0kB other streams:0kB global headers:0kB muxing overhead: 3.419811%
|命令|/usr/local/bin/ffmpeg -i /www/web/default/attachment//audios/3/2019/10/1571026538633cRf7xt.amr /www/web/default/attachment//audios/3/2019/10/VJfFkb567fZ00K50F1k603ZBSB1100.mp3 2>&1
ffmpeg version 3.4 Copyright (c) 2000-2017 the FFmpeg developers
  built with gcc 4.4.7 (GCC) 20120313 (Red Hat 4.4.7-18)
  configuration: --enable-libmp3lame
  libavutil      55. 78.100 / 55. 78.100
  libavcodec     57.107.100 / 57.107.100
  libavformat    57. 83.100 / 57. 83.100
  libavdevice    57. 10.100 / 57. 10.100
  libavfilter     6.107.100 /  6.107.100
  libswscale      4.  8.100 /  4.  8.100
  libswresample   2.  9.100 /  2.  9.100
[amr @ 0x2b80360] Estimating duration from bitrate, this may be inaccurate
Input #0, amr, from '/www/web/default/attachment//audios/3/2019/10/1571027184511W7bMvh.amr':
  Duration: 00:00:08.52, bitrate: 5 kb/s
    Stream #0:0: Audio: amr_nb (samr / 0x726D6173), 8000 Hz, mono, flt
Stream mapping:
  Stream #0:0 -> #0:0 (amr_nb (amrnb) -> mp3 (libmp3lame))
Press [q] to stop, [?] for help
Output #0, mp3, to '/www/web/default/attachment//audios/3/2019/10/T8K6o3x8ZpXGl5PPcNfkK8Cco8XNH8.mp3':
  Metadata:
    TSSE            : Lavf57.83.100
    Stream #0:0: Audio: mp3 (libmp3lame), 8000 Hz, mono, fltp
    Metadata:
      encoder         : Lavc57.107.100 libmp3lame
size=       9kB time=00:00:08.57 bitrate=   8.4kbits/s speed= 227x    
video:0kB audio:9kB subtitle:0kB other streams:0kB global headers:0kB muxing overhead: 2.995868%
|命令|/usr/local/bin/ffmpeg -i /www/web/default/attachment//audios/3/2019/10/1571027184511W7bMvh.amr /www/web/default/attachment//audios/3/2019/10/T8K6o3x8ZpXGl5PPcNfkK8Cco8XNH8.mp3 2>&1
ffmpeg version 3.4 Copyright (c) 2000-2017 the FFmpeg developers
  built with gcc 4.4.7 (GCC) 20120313 (Red Hat 4.4.7-18)
  configuration: --enable-libmp3lame
  libavutil      55. 78.100 / 55. 78.100
  libavcodec     57.107.100 / 57.107.100
  libavformat    57. 83.100 / 57. 83.100
  libavdevice    57. 10.100 / 57. 10.100
  libavfilter     6.107.100 /  6.107.100
  libswscale      4.  8.100 /  4.  8.100
  libswresample   2.  9.100 /  2.  9.100
[amr @ 0x33fd360] Estimating duration from bitrate, this may be inaccurate
Input #0, amr, from '/www/web/default/attachment//audios/3/2019/10/1571027258717gcCwcz.amr':
  Duration: 00:00:24.96, bitrate: 5 kb/s
    Stream #0:0: Audio: amr_nb (samr / 0x726D6173), 8000 Hz, mono, flt
Stream mapping:
  Stream #0:0 -> #0:0 (amr_nb (amrnb) -> mp3 (libmp3lame))
Press [q] to stop, [?] for help
Output #0, mp3, to '/www/web/default/attachment//audios/3/2019/10/JSHY7d0OO7yhosOQDY07buQ0gTzw7O.mp3':
  Metadata:
    TSSE            : Lavf57.83.100
    Stream #0:0: Audio: mp3 (libmp3lame), 8000 Hz, mono, fltp
    Metadata:
      encoder         : Lavc57.107.100 libmp3lame
size=      25kB time=00:00:24.98 bitrate=   8.1kbits/s speed= 354x    
video:0kB audio:25kB subtitle:0kB other streams:0kB global headers:0kB muxing overhead: 1.038682%
|命令|/usr/local/bin/ffmpeg -i /www/web/default/attachment//audios/3/2019/10/1571027258717gcCwcz.amr /www/web/default/attachment//audios/3/2019/10/JSHY7d0OO7yhosOQDY07buQ0gTzw7O.mp3 2>&1
